<svg width="16" height="16" viewBox="0 0 16 16" fill="none" xmlns="http://www.w3.org/2000/svg" class="w-4 h-4 ml-1 dark:text-white dark:hover:text-white"><path fill-rule="evenodd" clip-rule="evenodd" d="M4.66671 4.00016C4.66671 3.63197 4.96518 3.3335 5.33337 3.3335L12 3.3335C12.1769 3.3335 12.3464 3.40373 12.4714 3.52876C12.5965 3.65378 12.6667 3.82335 12.6667 4.00016L12.6667 10.6668C12.6667 11.035 12.3682 11.3335 12 11.3335C11.6319 11.3335 11.3334 11.035 11.3334 10.6668L11.3334 5.60964L4.47145 12.4716C4.2111 12.7319 3.78899 12.7319 3.52864 12.4716C3.26829 12.2112 3.26829 11.7891 3.52864 11.5288L10.3906 4.66683L5.33337 4.66683C4.96518 4.66683 4.66671 4.36835 4.66671 4.00016Z" fill="rgba(16, 16, 16, 1)"></path></svg>