<svg xmlns="http://www.w3.org/2000/svg" width="19" height="20" viewBox="0 0 19 20" fill="none">
  <g clip-path="url(#clip0_1_5535)">
    <path d="M9.07804 15.2161C9.13428 15.2727 9.20144 15.3173 9.27544 15.3472C9.34679 15.3762 9.42313 15.3911 9.50018 15.391C9.57722 15.391 9.65355 15.3762 9.72492 15.3472C9.79881 15.3173 9.86585 15.2727 9.92194 15.2161L13.7961 11.3419C13.8526 11.2857 13.8972 11.2187 13.9272 11.1449C13.9562 11.0735 13.9711 10.9972 13.971 10.9201C13.9711 10.8431 13.9562 10.7668 13.9272 10.6954C13.8972 10.6216 13.8526 10.5546 13.7961 10.4984C13.74 10.4417 13.673 10.3971 13.5991 10.3673C13.5277 10.3382 13.4514 10.3233 13.3743 10.3234C13.2973 10.3233 13.221 10.3382 13.1496 10.3673C13.0757 10.3971 13.0087 10.4417 12.9526 10.4984L10.0965 13.3541V1.09669C10.097 0.97788 10.0616 0.861688 9.99499 0.763323C9.93024 0.667428 9.8392 0.592253 9.73279 0.546822C9.65938 0.515967 9.58056 0.50005 9.50093 0.500001C9.38211 0.499816 9.26598 0.535309 9.16756 0.601883C9.0716 0.666548 8.9964 0.757613 8.95106 0.864082C8.92001 0.937561 8.90409 1.01654 8.90424 1.09631V13.3541L6.04778 10.4984C5.99154 10.4417 5.92439 10.3971 5.85038 10.3673C5.77903 10.3382 5.70269 10.3233 5.62564 10.3234C5.5486 10.3234 5.47228 10.3383 5.4009 10.3673C5.32706 10.3972 5.26004 10.4418 5.20388 10.4984C5.14752 10.5547 5.10295 10.6217 5.07278 10.6954C5.04403 10.7668 5.02928 10.8431 5.02933 10.9201C5.02928 10.9971 5.04403 11.0734 5.07278 11.1449C5.10295 11.2186 5.14752 11.2856 5.20388 11.3419L9.07804 15.2161Z" fill="black" fill-opacity="0.26"/>
    <path d="M1.09104 9.66762C1.0263 9.57172 0.935255 9.49655 0.828843 9.45112C0.755495 9.42007 0.676634 9.40414 0.596984 9.4043C0.478168 9.40411 0.362033 9.43961 0.26362 9.50618C0.167652 9.57084 0.0924574 9.66191 0.0471178 9.76838C0.0152467 9.84181 -0.00144398 9.92093 -0.00195065 10.001V18.2194C-0.0024534 18.4747 0.073759 18.7242 0.216799 18.9356C0.355923 19.1418 0.55187 19.3033 0.780899 19.4004C0.938665 19.467 1.1082 19.5013 1.27945 19.5012H17.7167C17.9719 19.5017 18.2214 19.4255 18.4328 19.2824C18.639 19.1432 18.8004 18.9473 18.8977 18.7183C18.9644 18.5605 18.9985 18.3908 18.9981 18.2194V10.001C18.9986 9.88218 18.9632 9.76599 18.8965 9.66762C18.8318 9.57172 18.7408 9.49655 18.6343 9.45112C18.561 9.42007 18.4821 9.40414 18.4025 9.4043C18.2837 9.40411 18.1675 9.43961 18.0691 9.50618C17.9732 9.57084 17.898 9.66191 17.8526 9.76838C17.8214 9.8418 17.8055 9.92082 17.8058 10.0006V18.3078H1.19255V10.001C1.19305 9.88218 1.15767 9.76599 1.09104 9.66762Z" fill="black" fill-opacity="0.26"/>
  </g>
  <defs>
    <clipPath id="clip0_1_5535">
      <rect width="19" height="19" fill="white" transform="translate(0 0.5)"/>
    </clipPath>
  </defs>
</svg>