<svg width="48" height="48" viewBox="0 0 48 48" fill="none" xmlns="http://www.w3.org/2000/svg">
<mask id="mask0_18504_98649" style="mask-type:alpha" maskUnits="userSpaceOnUse" x="0" y="0" width="48" height="48">
<rect width="48" height="48" rx="12" fill="#D9D9D9"/>
</mask>
<g mask="url(#mask0_18504_98649)">
<g filter="url(#filter0_d_18504_98649)">
<rect width="48" height="48" rx="12" fill="url(#paint0_linear_18504_98649)"/>
</g>
<g opacity="0.85" filter="url(#filter1_d_18504_98649)">
<rect width="48" height="48" rx="12" fill="white"/>
</g>
<path d="M9.26111 23.5C9.26111 27.2676 10.8273 30.881 13.6152 33.5451C16.4031 36.2092 20.1843 37.7059 24.127 37.7059C24.3257 37.7059 24.5243 37.7059 24.723 37.7059V32.3045H24.127C21.7198 32.2511 19.43 31.2998 17.7473 29.654C16.0645 28.0082 15.1224 25.7986 15.1224 23.4976C15.1224 21.1967 16.0645 18.987 17.7473 17.3412C19.43 15.6954 21.7198 14.7441 24.127 14.6907H24.723V9.29407C24.5243 9.29407 24.3257 9.29407 24.127 9.29407C20.1843 9.29407 16.4031 10.7908 13.6152 13.4549C10.8273 16.119 9.26111 19.7323 9.26111 23.5" fill="#FF4B5F"/>
<path d="M27.0958 9.57886V16.9642H24.1157C23.2023 16.9407 22.2933 17.0923 21.4423 17.41C20.5913 17.7278 19.8155 18.2053 19.1608 18.8143C18.5061 19.4233 17.9857 20.1515 17.6304 20.9559C17.2751 21.7602 17.092 22.6245 17.092 23.4976C17.092 24.3707 17.2751 25.235 17.6304 26.0394C17.9857 26.8438 18.5061 27.5719 19.1608 28.181C19.8155 28.79 20.5913 29.2674 21.4423 29.5852C22.2933 29.9029 23.2023 30.0545 24.1157 30.031H27.0958V37.4211C30.4556 36.7684 33.476 35.0259 35.6455 32.4889C37.8149 29.9519 39 26.7763 39 23.5C39 20.2237 37.8149 17.0481 35.6455 14.511C33.476 11.974 30.4556 10.2316 27.0958 9.57886" fill="#003790"/>
</g>
<defs>
<filter id="filter0_d_18504_98649" x="-100" y="-95" width="248" height="248" filterUnits="userSpaceOnUse" color-interpolation-filters="sRGB">
<feFlood flood-opacity="0" result="BackgroundImageFix"/>
<feColorMatrix in="SourceAlpha" type="matrix" values="0 0 0 0 0 0 0 0 0 0 0 0 0 0 0 0 0 0 127 0" result="hardAlpha"/>
<feOffset dy="5"/>
<feGaussianBlur stdDeviation="50"/>
<feComposite in2="hardAlpha" operator="out"/>
<feColorMatrix type="matrix" values="0 0 0 0 0 0 0 0 0 0 0 0 0 0 0 0 0 0 0.1 0"/>
<feBlend mode="normal" in2="BackgroundImageFix" result="effect1_dropShadow_18504_98649"/>
<feBlend mode="normal" in="SourceGraphic" in2="effect1_dropShadow_18504_98649" result="shape"/>
</filter>
<filter id="filter1_d_18504_98649" x="-100" y="-95" width="248" height="248" filterUnits="userSpaceOnUse" color-interpolation-filters="sRGB">
<feFlood flood-opacity="0" result="BackgroundImageFix"/>
<feColorMatrix in="SourceAlpha" type="matrix" values="0 0 0 0 0 0 0 0 0 0 0 0 0 0 0 0 0 0 127 0" result="hardAlpha"/>
<feOffset dy="5"/>
<feGaussianBlur stdDeviation="50"/>
<feComposite in2="hardAlpha" operator="out"/>
<feColorMatrix type="matrix" values="0 0 0 0 0 0 0 0 0 0 0 0 0 0 0 0 0 0 0.1 0"/>
<feBlend mode="normal" in2="BackgroundImageFix" result="effect1_dropShadow_18504_98649"/>
<feBlend mode="normal" in="SourceGraphic" in2="effect1_dropShadow_18504_98649" result="shape"/>
</filter>
<linearGradient id="paint0_linear_18504_98649" x1="-1" y1="5.83629e-08" x2="46" y2="48" gradientUnits="userSpaceOnUse">
<stop stop-color="#FF4B5F"/>
<stop offset="1" stop-color="#003790"/>
</linearGradient>
</defs>
</svg>
